<?xml version="1.0" encoding="utf-8"?>
<!-- Generator: Adobe Illustrator 16.0.4, SVG Export Plug-In . SVG Version: 6.00 Build 0)  -->
<!DOCTYPE svg PUBLIC "-//W3C//DTD SVG 1.1//EN" "http://www.w3.org/Graphics/SVG/1.1/DTD/svg11.dtd">
<svg version="1.1" id="Layer_1" xmlns="http://www.w3.org/2000/svg" xmlns:xlink="http://www.w3.org/1999/xlink" x="0px" y="0px"
	 width="612px" height="490px" viewBox="0 150.5 612 490" enable-background="new 0 150.5 612 490" xml:space="preserve">
<g>
	<path fill="#4c81ae" d="M584.269,154.667H27.731c-11.355,0-20.56,9.204-20.56,20.559v357.757c0,11.355,9.204,20.56,20.56,20.56h556.537
		c11.355,0,20.56-9.204,20.56-20.56V175.226C604.828,163.87,595.624,154.667,584.269,154.667z M467.846,525.094
		c-7.172,0-12.91-5.737-12.91-12.909s5.738-12.909,12.91-12.909s12.909,5.737,12.909,12.909
		C480.755,519.236,474.897,525.094,467.846,525.094z M512.431,525.094c-7.172,0-12.909-5.737-12.909-12.909
		s5.737-12.909,12.909-12.909s12.909,5.737,12.909,12.909C525.34,519.236,519.482,525.094,512.431,525.094z M557.016,525.094
		c-7.172,0-12.909-5.737-12.909-12.909s5.737-12.909,12.909-12.909s12.909,5.737,12.909,12.909
		C569.925,519.236,564.068,525.094,557.016,525.094z M569.925,462.101H44.227V196.144h525.698V462.101z"/>
	<polygon id="XMLID_2_" fill="#4c81ae" points="237.15,553.064 209.777,620.838 402.223,620.838 374.85,553.064 	"/>
	<path id="XMLID_1_" fill="#4c81ae" d="M434.377,637.334H177.624c-2.988,0-5.379-2.391-5.379-5.379v-10.399c0-2.988,2.391-5.379,5.379-5.379
		h256.753c2.988,0,5.379,2.391,5.379,5.379v10.399C439.756,634.943,437.365,637.334,434.377,637.334z"/>
</g>
</svg>
