<?xml version="1.0" ?><!DOCTYPE svg  PUBLIC '-//W3C//DTD SVG 1.1//EN'  'http://www.w3.org/Graphics/SVG/1.1/DTD/svg11.dtd'>
<svg enable-background="new 0 0 24 24" height="24px" id="Layer_1" version="1.1" viewBox="0 0 24 24" width="24px" xml:space="preserve" xmlns="http://www.w3.org/2000/svg" xmlns:xlink="http://www.w3.org/1999/xlink"><g><rect fill="#4c81ae" height="1" width="5" x="9" y="13"/><rect fill="#4c81ae" height="1" width="5" x="9" y="15"/><rect fill="#4c81ae" height="1" width="5" x="9" y="17"/><rect fill="#4c81ae" height="1" width="5" x="9" y="19"/><rect fill="#4c81ae" height="1" width="5" x="15" y="13"/><rect fill="#4c81ae" height="1" width="5" x="15" y="15"/><rect fill="#4c81ae" height="1" width="5" x="15" y="17"/><rect fill="#4c81ae" height="1" width="5" x="15" y="19"/><path fill="#4c81ae" d="M22.9,3H20V1.1C20,0.5,19.5,0,18.9,0H1.1C0.5,0,0,0.5,0,1.1c0,0,0,19.2,0,19.4C0,22.4,1.6,24,3.5,24C3.7,24,4,24,4,24h16   c0,0,0.3,0,0.5,0c1.9,0,3.5-1.6,3.5-3.5c0-0.2,0-0.5,0-0.5V4.1C24,3.5,23.5,3,22.9,3z M5,20.7c0,0.6-0.3,1.1-0.8,1.3L4,22.1   c-0.2,0.1-0.3,0.1-0.5,0.1c-0.8,0-1.5-0.7-1.5-1.5C2,20.4,2,2,2,2h16v1h-1.5H6.1H3.5C3.2,3,3,3.2,3,3.5v17C3,20.8,3.2,21,3.5,21   S4,20.8,4,20.5V4h1C5,4,5,20.4,5,20.7z M22,20c0,0,0,0.4,0,0.7c0,0.8-0.7,1.3-1.5,1.3c-0.2,0-0.5,0-0.5,0H6.7C6.9,21.5,7,21,7,20.5   C7,20.3,7,5,7,5h15V20z"/><path fill="#4c81ae" d="M20,7H9v5h11V7z M19,11h-9V8h9V11z"/></g></svg>
